<?xml version="1.0" encoding="UTF-8"?>
<svg version="1.1" xmlns="http://www.w3.org/2000/svg" width="512" height="512">
<path d="M0 0 C0.66 -0.0103125 1.32 -0.020625 2 -0.03125 C5.17708318 0.81266272 6.15253044 1.7369703 8 4.5 C8.49219407 8.09515669 8.37532185 11.6301265 8.25 15.25 C8.23195313 16.23355469 8.21390625 17.21710937 8.1953125 18.23046875 C8.14824126 20.65463783 8.08250742 23.07682059 8 25.5 C8.83917969 25.51417969 9.67835938 25.52835938 10.54296875 25.54296875 C21.34928823 25.97151518 31.3251286 28.2933873 41.77783203 30.96484375 C44.49927259 31.62023792 47.23016038 32.09976045 50 32.5 C50.17015625 31.83613281 50.3403125 31.17226563 50.515625 30.48828125 C52.2919188 24.01614694 53.91564095 19.68161981 59.5625 15.6875 C66.65148322 13.23857852 73.08718476 13.84873082 79.83984375 16.84375 C82.6397643 17.69435878 85.08050438 17.58769449 88 17.5 C93.93784925 17.36521906 98.94387588 17.77997137 103.52734375 21.859375 C108.0124456 26.90348954 109.24642195 31.19840185 108.9375 37.8125 C108.86094553 41.82485508 108.86175362 44.94466045 110.5 48.625 C112.63780018 53.46317935 112.73738184 58.29951752 112 63.5 C110.90266506 66.0746993 109.5412733 68.13992526 108 70.5 C108 75.2835254 109.60505191 76.95738053 112.5 80.4375 C117.61483971 86.80489733 121.87239114 93.45539382 126 100.5 C127.15757812 99.9946875 128.31515625 99.489375 129.5078125 98.96875 C131.04663431 98.31193581 132.58571039 97.65571712 134.125 97 C134.88554687 96.66613281 135.64609375 96.33226563 136.4296875 95.98828125 C140.74056432 94.16730742 144.23129613 92.8613343 149 93.5 C152.32878632 95.96040728 153.79301948 97.39610387 154.5625 101.5 C153.84258577 105.33954254 152.74875807 106.70849297 150 109.5 C147.1842581 111.0489979 144.25490344 112.18379249 141.25 113.3125 C140.45722656 113.62380859 139.66445313 113.93511719 138.84765625 114.25585938 C136.90355387 115.01710428 134.95243115 115.76037816 133 116.5 C133.17128418 117.12865967 133.34256836 117.75731934 133.51904297 118.4050293 C134.31164698 121.33059975 135.09333641 124.25898828 135.875 127.1875 C136.14441406 128.17556641 136.41382813 129.16363281 136.69140625 130.18164062 C139.92804253 142.37823343 141.32318227 154.01078937 141.1875 166.625 C141.18105469 167.87949951 141.17460937 169.13399902 141.16796875 170.42651367 C141.08561708 180.47148727 140.69878142 190.47997355 140 200.5 C141.60888547 199.11206813 143.2175125 197.72383574 144.82495117 196.33422852 C146.20152963 195.14453816 147.57931485 193.95624282 148.95825195 192.76928711 C152.79571683 189.45492905 156.52119348 186.06679297 160.1875 182.5625 C170.01909786 173.70755093 181.35379483 170.06407314 194.4375 170.5625 C205.60370857 171.72674923 215.13650538 176.50045876 223 184.5 C232.15914803 196.04398279 234.50187255 208.10469325 233 222.5 C229.07810891 241.54918528 211.34924076 254.08274213 197 265.5 C195.85967685 266.43106797 194.72041261 267.36343387 193.58203125 268.296875 C181.08584241 278.49777725 168.05546845 287.70340598 154.375 296.25 C153.49134766 296.81235352 152.60769531 297.37470703 151.69726562 297.95410156 C147.69624377 300.44992061 143.91238923 302.66209202 139.4375 304.18359375 C133.46956294 306.24927617 133.46956294 306.24927617 129 310.5 C126.34849307 318.84891293 126.14381157 327.79987028 126 336.5 C127.22976563 336.45359375 128.45953125 336.4071875 129.7265625 336.359375 C131.3593506 336.32183964 132.99216511 336.28544138 134.625 336.25 C135.43324219 336.21648437 136.24148438 336.18296875 137.07421875 336.1484375 C142.56333325 336.05918361 145.73209504 336.72021321 150 340.5 C154.00557185 345.41597076 154.59609735 348.88568131 154.53125 354.96875 C154.5350769 355.76728394 154.53890381 356.56581787 154.54284668 357.3885498 C154.54555711 359.06943022 154.53825688 360.75035343 154.52148438 362.43115234 C154.50006 364.99282546 154.52131321 367.55169456 154.546875 370.11328125 C154.54423157 371.75261031 154.53910626 373.39193763 154.53125 375.03125 C154.53934692 375.79078979 154.54744385 376.55032959 154.55578613 377.33288574 C154.46569027 382.4844696 153.36569629 385.39930179 150 389.5 C146.0674916 392.66310458 143.02245446 394.021671 138 394.5 C137.85268433 396.43564819 137.85268433 396.43564819 137.70239258 398.41040039 C136.90459298 406.33520973 135.28054853 414.12268177 133.76171875 421.93359375 C133.43629187 423.61928243 133.11100242 425.30499764 132.7858429 426.99073792 C132.10565174 430.51049116 131.42175992 434.02950227 130.7355957 437.5480957 C129.8623839 442.0289708 129.00159112 446.51213223 128.14398479 450.9960165 C127.47667207 454.47447474 126.80110628 457.9512937 126.12330055 461.42772102 C125.80270728 463.07876084 125.48496729 464.73035764 125.17029381 466.38253593 C122.0721112 482.61427447 118.72694587 496.81920617 104.53137207 506.88581085 C94.70409724 513.1524046 84.45795957 513.07553939 73.21875 513.01757812 C71.44188872 513.02300734 69.66503195 513.03013447 67.88818359 513.03881836 C63.09061515 513.05695958 58.29339312 513.05002241 53.49581909 513.03730202 C48.45879225 513.02712645 43.42179372 513.0365803 38.38476562 513.04284668 C29.92833163 513.05010986 21.47203769 513.04057034 13.015625 513.02148438 C3.25946071 512.99971823 -6.49636913 513.00677054 -16.25252533 513.02879 C-24.65118 513.04698194 -33.04973439 513.0494838 -41.4484024 513.03903532 C-46.45483374 513.03282122 -51.46110823 513.03190714 -56.4675293 513.04518127 C-61.17583762 513.05679453 -65.8837176 513.04861467 -70.59197998 513.02560425 C-72.31279797 513.02034627 -74.03365243 513.02178062 -75.75445557 513.03065491 C-89.5717212 513.09530444 -100.63818197 511.39171664 -111 501.5 C-121.31056786 490.69942496 -123.19177132 476.78316642 -125.890625 462.6640625 C-126.24298565 460.85317612 -126.5960042 459.04241763 -126.949646 457.23178101 C-127.68455265 453.45912009 -128.41347314 449.68537076 -129.13769531 445.91064453 C-130.06531066 441.07694684 -131.00503069 436.24570176 -131.94882584 431.41514015 C-132.67661217 427.68581817 -133.39953895 423.95556791 -134.12084198 420.22498703 C-134.46577179 418.44259821 -134.81185591 416.66043236 -135.15912628 414.87849808 C-135.64237541 412.39334905 -136.11943098 409.9070909 -136.59472656 407.42041016 C-136.7380542 406.68890747 -136.88138184 405.95740479 -137.02905273 405.20373535 C-137.71319291 401.58812352 -138.16128157 398.18173651 -138 394.5 C-138.86625 394.4175 -139.7325 394.335 -140.625 394.25 C-145.73421074 393.11461983 -148.83903817 390.91449308 -152.14648438 386.88476562 C-154.44245249 382.69202301 -154.58124748 379.7213124 -154.53125 375.03125 C-154.53699036 373.8334491 -154.53699036 373.8334491 -154.54284668 372.6114502 C-154.54555711 370.93056978 -154.53825688 369.24964657 -154.52148438 367.56884766 C-154.50006 365.00717454 -154.52131321 362.44830544 -154.546875 359.88671875 C-154.54423157 358.24738969 -154.53910626 356.60806237 -154.53125 354.96875 C-154.53934692 354.20921021 -154.54744385 353.44967041 -154.55578613 352.66711426 C-154.46561588 347.51127715 -153.35203546 344.61389657 -150 340.5 C-145.00171539 336.07336671 -140.96891641 335.98693489 -134.625 336.25 C-133.79355469 336.26804687 -132.96210938 336.28609375 -132.10546875 336.3046875 C-130.06980926 336.35148427 -128.0347491 336.42321702 -126 336.5 C-125.18435905 321.50834487 -125.18435905 321.50834487 -130.91455078 308.34863281 C-136.07482486 304.63271848 -141.98561378 302.39087779 -147.82714844 299.95947266 C-153.36356905 297.41278733 -158.29517483 293.99724639 -163.3125 290.5625 C-164.31861328 289.8821167 -165.32472656 289.2017334 -166.36132812 288.50073242 C-182.72253154 277.33990171 -198.06875721 264.98686535 -212.66015625 251.6015625 C-214.19526234 250.22278608 -215.76555026 248.8820105 -217.37109375 247.5859375 C-225.63535447 240.81286716 -232.09784726 231.40014689 -233.20141602 220.51293945 C-233.87069123 206.61273456 -231.87475107 195.68553531 -223 184.5 C-214.35902483 175.70952698 -203.68062139 170.85788683 -191.36328125 170.37109375 C-175.24420803 170.98889795 -165.4655924 177.78022955 -154.2734375 188.44140625 C-149.74039503 192.73522734 -144.88949858 196.61975664 -140 200.5 C-140.10828125 198.94732422 -140.10828125 198.94732422 -140.21875 197.36328125 C-142.03514127 169.07073282 -141.12007577 143.65250632 -133 116.5 C-134.18078125 116.05269531 -135.3615625 115.60539062 -136.578125 115.14453125 C-138.13572045 114.53462942 -139.69299557 113.92390906 -141.25 113.3125 C-142.02730469 113.02052734 -142.80460937 112.72855469 -143.60546875 112.42773438 C-148.296087 110.5635143 -151.28267514 108.97181808 -154 104.5 C-154.5625 101.5 -154.5625 101.5 -154 98.5 C-151.875 95.625 -151.875 95.625 -149 93.5 C-143.40922065 92.75123491 -139.12772604 94.80388806 -134.125 97 C-133.34125 97.33386719 -132.5575 97.66773437 -131.75 98.01171875 C-129.82921591 98.83156562 -127.91401918 99.66448161 -126 100.5 C-124.948125 98.83324219 -124.948125 98.83324219 -123.875 97.1328125 C-118.64341432 88.90288354 -113.41023982 80.876001 -107 73.5 C-106.18144531 72.53707031 -105.36289063 71.57414062 -104.51953125 70.58203125 C-98.06940934 63.16445004 -90.97079823 57.22782321 -83 51.5 C-83.55429688 50.53578125 -84.10859375 49.5715625 -84.6796875 48.578125 C-85.41151597 47.30211639 -86.1432836 46.02607288 -86.875 44.75 C-87.23980469 44.11578125 -87.60460937 43.4815625 -87.98046875 42.828125 C-88.99528209 41.05681444 -89.99802582 39.27860478 -91 37.5 C-91.62648437 36.39591797 -91.62648437 36.39591797 -92.265625 35.26953125 C-93.55315992 32.16711998 -92.80545616 29.66429206 -92 26.5 C-89.66628145 23.71748942 -88.17171882 23.52497728 -84.5625 23 C-81.07247568 23.48982797 -79.6259567 23.9508192 -77.33203125 26.59765625 C-69 38.49706745 -69 38.49706745 -69 42.5 C-68.19820312 42.06429687 -67.39640625 41.62859375 -66.5703125 41.1796875 C-48.12149227 31.51601976 -28.81243909 26.34532316 -8 25.5 C-8.02094727 24.88479492 -8.04189453 24.26958984 -8.06347656 23.63574219 C-8.14677017 20.84066191 -8.19870013 18.04584285 -8.25 15.25 C-8.28351563 14.28191406 -8.31703125 13.31382813 -8.3515625 12.31640625 C-8.45009026 5.17314384 -8.45009026 5.17314384 -6.234375 1.859375 C-3.9080807 0.44407707 -2.6975348 -0.04214898 0 0 Z " fill="#7BB677" transform="translate(256,-0.5)"/>
<path d="M0 0 C1.17695623 -0.00623996 2.35391247 -0.01247993 3.56653404 -0.01890898 C6.82525166 -0.03208965 10.08337182 -0.02736476 13.34207439 -0.0149641 C16.85953109 -0.00590834 20.37690744 -0.01988592 23.89434814 -0.03088379 C30.78175742 -0.04866806 37.66899231 -0.0448295 44.55640841 -0.03323323 C50.15405489 -0.02419879 55.75165251 -0.02297494 61.3493042 -0.02732849 C62.14606296 -0.02794142 62.94282172 -0.02855436 63.76372468 -0.02918586 C65.38233711 -0.03046477 67.00094952 -0.03176162 68.61956191 -0.03307623 C83.79645068 -0.04448175 98.97324281 -0.03136877 114.15011573 -0.00987476 C127.1719029 0.00799621 140.19354744 0.0048921 153.21533203 -0.0135498 C168.33799653 -0.03495702 183.46057633 -0.04338312 198.58325386 -0.03110075 C200.19590376 -0.02982656 201.80855368 -0.02856907 203.42120361 -0.02732849 C204.21465317 -0.02671139 205.00810273 -0.02609429 205.82559621 -0.02545848 C211.41636461 -0.02200513 217.00707928 -0.0278336 222.59783936 -0.0372467 C229.41136961 -0.04846643 236.22471555 -0.04542731 243.0382247 -0.02412373 C246.5144703 -0.0136128 249.99040861 -0.00949185 253.46665192 -0.02272034 C257.23491226 -0.03361967 261.00230315 -0.01997819 264.77050781 0 C265.86953115 -0.00892289 266.9685545 -0.01784577 268.10088158 -0.02703905 C274.18677906 0.03572337 277.76396862 0.42533699 282.38525391 4.50793457 C286.49912328 9.28743419 286.98080189 12.94514964 286.91650391 18.97668457 C286.92033081 19.77521851 286.92415771 20.57375244 286.92810059 21.39648438 C286.93081102 23.07736479 286.92351079 24.758288 286.90673828 26.43908691 C286.88531391 29.00076003 286.90656711 31.55962913 286.93212891 34.12121582 C286.92948547 35.76054488 286.92436017 37.39987221 286.91650391 39.03918457 C286.92460083 39.79872437 286.93269775 40.55826416 286.94104004 41.34082031 C286.85094417 46.49240417 285.7509502 49.40723636 282.38525391 53.50793457 C278.45274551 56.67103915 275.40770837 58.02960557 270.38525391 58.50793457 C270.28704346 59.7983667 270.18883301 61.08879883 270.08764648 62.41833496 C269.28984689 70.3431443 267.66580244 78.13061634 266.14697266 85.94152832 C265.82154578 87.627217 265.49625632 89.31293221 265.1710968 90.99867249 C264.49090565 94.51842573 263.80701383 98.03743684 263.12084961 101.55603027 C262.24763781 106.03690537 261.38684503 110.5200668 260.5292387 115.00395107 C259.86192598 118.48240931 259.18636019 121.95922827 258.50855446 125.43565559 C258.18796119 127.08669541 257.8702212 128.73829221 257.55554771 130.3904705 C254.45736511 146.62220904 251.11219978 160.82714074 236.91662598 170.89374542 C227.08935115 177.16033917 216.84321348 177.08347396 205.60400391 177.0255127 C203.82714263 177.03094191 202.05028585 177.03806904 200.2734375 177.04675293 C195.47586906 177.06489415 190.67864703 177.05795698 185.881073 177.04523659 C180.84404616 177.03506102 175.80704762 177.04451487 170.77001953 177.05078125 C162.31358554 177.05804443 153.8572916 177.04850491 145.40087891 177.02941895 C135.64471461 177.0076528 125.88888477 177.01470511 116.13272858 177.03672457 C107.73407391 177.05491651 99.33551952 177.05741837 90.9368515 177.04696989 C85.93042016 177.04075579 80.92414567 177.03984171 75.91772461 177.05311584 C71.20941629 177.0647291 66.50153631 177.05654924 61.79327393 177.03353882 C60.07245594 177.02828084 58.35160148 177.02971519 56.63079834 177.03858948 C42.81353271 177.10323901 31.74707193 175.39965121 21.38525391 165.50793457 C11.07468605 154.70735953 9.19348258 140.79110099 6.49462891 126.67199707 C6.14226825 124.86111069 5.78924971 123.0503522 5.43560791 121.23971558 C4.70070126 117.46705466 3.97178077 113.69330533 3.24755859 109.9185791 C2.31994325 105.08488141 1.38022322 100.25363634 0.43642807 95.42307472 C-0.29135826 91.69375274 -1.01428504 87.96350248 -1.73558807 84.2329216 C-2.08051789 82.45053278 -2.426602 80.66836693 -2.77387238 78.88643265 C-3.2571215 76.40128362 -3.73417707 73.91502547 -4.20947266 71.42834473 C-4.35280029 70.69684204 -4.49612793 69.96533936 -4.64379883 69.21166992 C-5.327939 65.59605809 -5.77602766 62.18967108 -5.61474609 58.50793457 C-6.48099609 58.42543457 -7.34724609 58.34293457 -8.23974609 58.25793457 C-13.34895684 57.12255441 -16.45378426 54.92242765 -19.76123047 50.8927002 C-22.05719858 46.69995758 -22.19599358 43.72924697 -22.14599609 39.03918457 C-22.149823 38.24065063 -22.1536499 37.4421167 -22.15759277 36.61938477 C-22.16030321 34.93850435 -22.15300298 33.25758114 -22.13623047 31.57678223 C-22.1148061 29.01510911 -22.1360593 26.45624001 -22.16162109 23.89465332 C-22.15897766 22.25532426 -22.15385236 20.61599694 -22.14599609 18.97668457 C-22.15409302 18.21714478 -22.16218994 17.45760498 -22.17053223 16.67504883 C-22.08049209 11.52665183 -21.08093326 8.53495602 -17.61474609 4.50793457 C-12.13472619 -0.33329782 -7.0981222 -0.05762911 0 0 Z " fill="#FC6F71" transform="translate(123.61474609375,335.4920654296875)"/>
<path d="M0 0 C1.17695623 -0.00623996 2.35391247 -0.01247993 3.56653404 -0.01890898 C6.82525166 -0.03208965 10.08337182 -0.02736476 13.34207439 -0.0149641 C16.85953109 -0.00590834 20.37690744 -0.01988592 23.89434814 -0.03088379 C30.78175742 -0.04866806 37.66899231 -0.0448295 44.55640841 -0.03323323 C50.15405489 -0.02419879 55.75165251 -0.02297494 61.3493042 -0.02732849 C62.14606296 -0.02794142 62.94282172 -0.02855436 63.76372468 -0.02918586 C65.38233711 -0.03046477 67.00094952 -0.03176162 68.61956191 -0.03307623 C83.79645068 -0.04448175 98.97324281 -0.03136877 114.15011573 -0.00987476 C127.1719029 0.00799621 140.19354744 0.0048921 153.21533203 -0.0135498 C168.33799653 -0.03495702 183.46057633 -0.04338312 198.58325386 -0.03110075 C200.19590376 -0.02982656 201.80855368 -0.02856907 203.42120361 -0.02732849 C204.21465317 -0.02671139 205.00810273 -0.02609429 205.82559621 -0.02545848 C211.41636461 -0.02200513 217.00707928 -0.0278336 222.59783936 -0.0372467 C229.41136961 -0.04846643 236.22471555 -0.04542731 243.0382247 -0.02412373 C246.5144703 -0.0136128 249.99040861 -0.00949185 253.46665192 -0.02272034 C257.23491226 -0.03361967 261.00230315 -0.01997819 264.77050781 0 C265.86953115 -0.00892289 266.9685545 -0.01784577 268.10088158 -0.02703905 C274.18677906 0.03572337 277.76396862 0.42533699 282.38525391 4.50793457 C286.49912328 9.28743419 286.98080189 12.94514964 286.91650391 18.97668457 C286.92033081 19.77521851 286.92415771 20.57375244 286.92810059 21.39648438 C286.93081102 23.07736479 286.92351079 24.758288 286.90673828 26.43908691 C286.88531391 29.00076003 286.90656711 31.55962913 286.93212891 34.12121582 C286.92948547 35.76054488 286.92436017 37.39987221 286.91650391 39.03918457 C286.92460083 39.79872437 286.93269775 40.55826416 286.94104004 41.34082031 C286.85094417 46.49240417 285.7509502 49.40723636 282.38525391 53.50793457 C275.25463026 59.2434362 267.85761803 58.65662054 259.12564087 58.65510559 C257.98684774 58.65878228 256.84805461 58.66245897 255.67475259 58.66624707 C251.85640601 58.6772659 248.03808665 58.68112466 244.21972656 58.68493652 C241.48308582 58.69067243 238.74644913 58.69783663 236.0098114 58.70484924 C227.79863863 58.72457282 219.58746469 58.73467244 211.37627417 58.74357703 C207.50708821 58.74796472 203.63790361 58.7533301 199.76871872 58.7585659 C186.90438687 58.7755704 174.04005585 58.79006571 161.17571449 58.79731464 C157.84061304 58.79922443 154.50551159 58.80114479 151.17041016 58.80310059 C150.34152013 58.80358433 149.5126301 58.80406807 148.65862219 58.80456647 C135.22369034 58.8128713 121.7888474 58.83821932 108.35395439 58.87068126 C94.55401259 58.90375309 80.75411599 58.92176332 66.95413435 58.92495888 C59.20848849 58.92712334 51.46297247 58.93586314 43.71736526 58.96142006 C37.12313826 58.98312835 30.52907268 58.99117671 23.93481399 58.98145328 C20.57163749 58.97690944 17.20906403 58.9809822 13.84588814 58.99821472 C10.19658842 59.0158678 6.54813409 59.0088588 2.89883423 58.99568176 C1.8406551 59.00665101 0.78247598 59.01762025 -0.30776918 59.0289219 C-6.56950261 58.97432226 -11.41582729 58.16660504 -16.61474609 54.50793457 C-21.27762479 49.4863729 -21.78993636 46.09328396 -21.85302734 39.42980957 C-21.86109909 38.62561584 -21.86917084 37.82142212 -21.87748718 36.99285889 C-21.89132907 35.28810787 -21.90205076 33.58332912 -21.90991211 31.87854004 C-21.92708819 29.28180713 -21.97096693 26.68635981 -22.01513672 24.08996582 C-22.02526715 22.43242309 -22.03378216 20.77486954 -22.04052734 19.11730957 C-22.05803543 18.34522156 -22.07554352 17.57313354 -22.09358215 16.77764893 C-22.07281102 11.56734737 -21.14011071 8.57901786 -17.61474609 4.50793457 C-12.13343405 -0.33237149 -7.09892243 -0.05763561 0 0 Z " fill="#EEECED" transform="translate(123.61474609375,335.4920654296875)"/>
<path d="M0 0 C9.54954013 9.71475709 12.78188552 20.71675544 12.67773438 33.97143555 C12.21717173 47.27608663 5.75532583 57.16761348 -3.67407227 66.16870117 C-10.12658197 72.16892002 -16.84807539 77.81143803 -23.7421875 83.296875 C-24.88251065 84.22794297 -26.02177489 85.16030887 -27.16015625 86.09375 C-47.36320075 102.58592091 -69.087624 117.22239053 -92.7421875 128.296875 C-93.00208146 119.73962587 -91.9899806 111.34933214 -91.0546875 102.859375 C-89.68067454 90.26543134 -88.506346 77.67119396 -87.5390625 65.0390625 C-87.33186786 62.40029011 -87.12442944 59.76153686 -86.91674805 57.12280273 C-86.60752246 53.187671 -86.3059804 49.25271966 -86.0284729 45.31521606 C-85.76662832 41.60808209 -85.47756599 37.90392343 -85.18359375 34.19921875 C-85.07727631 32.52815567 -85.07727631 32.52815567 -84.96881104 30.82333374 C-84.28345957 22.65603032 -82.41866586 19.52032759 -76.26953125 14.12890625 C-75.41488281 13.46246094 -74.56023437 12.79601562 -73.6796875 12.109375 C-70.04748376 9.22698275 -66.62107627 6.26791711 -63.296875 3.04541016 C-45.05843318 -14.50670286 -19.7660032 -16.90597058 0 0 Z " fill="#7BB676" transform="translate(476.7421875,181.703125)"/>
<path d="M0 0 C4.0277041 3.62219376 8.16322516 7.11487545 12.31298828 10.59619141 C17.02920006 14.59108472 17.94278652 16.32174233 18.46655273 22.46846008 C18.53302002 23.29613388 18.5994873 24.12380768 18.66796875 24.9765625 C18.77878784 26.28919319 18.77878784 26.28919319 18.8918457 27.62834167 C19.05322228 29.54188278 19.21285062 31.4555719 19.37097168 33.36938477 C19.79945181 38.55171497 20.24089387 43.73293013 20.68359375 48.9140625 C20.77695007 50.00816437 20.8703064 51.10226624 20.9664917 52.22952271 C21.68347505 60.56345899 22.45261074 68.89177081 23.24609375 77.21875 C23.36067932 78.42134964 23.47526489 79.62394928 23.59332275 80.86299133 C24.15631455 86.75521572 24.72438148 92.64692707 25.29589844 98.53833008 C25.50329681 100.69872648 25.71065557 102.85912668 25.91796875 105.01953125 C26.01464844 106.00197311 26.11132812 106.98441498 26.2109375 107.99662781 C26.64564193 112.54490837 26.98759344 117.00607624 26.87109375 121.58203125 C22.05831504 120.99328356 18.21944324 118.85911165 14.05859375 116.51953125 C13.28523682 116.08616455 12.51187988 115.65279785 11.71508789 115.20629883 C-13.3969746 100.84280116 -36.49775567 83.21500326 -57.7890625 63.68359375 C-59.32416859 62.30481733 -60.89445651 60.96404175 -62.5 59.66796875 C-70.76426072 52.89489841 -77.22675351 43.48217814 -78.33032227 32.5949707 C-78.99959748 18.69476581 -77.00365732 7.76756656 -68.12890625 -3.41796875 C-60.85715832 -10.81552547 -50.79566418 -16.70083001 -40.2421875 -17.421875 C-22.76052479 -17.38956139 -12.55083097 -11.49350668 0 0 Z " fill="#7BB676" transform="translate(101.12890625,187.41796875)"/>
<path d="M0 0 C13.53 0 27.06 0 41 0 C43.62513412 13.05897027 46.22732171 26.12084315 48.75390625 39.19921875 C49.45469918 42.81377848 50.15591387 46.42825622 50.85717773 50.04272461 C51.33113089 52.49189272 51.8031059 54.9414444 52.27319336 57.39135742 C57.02609117 88.40217797 57.02609117 88.40217797 76 112 C78.92669299 113.58060182 81.90227129 114.80355411 85 116 C86.33696448 116.65935437 87.67081718 117.32509611 89 118 C83.22002052 118.09967465 77.44055312 118.17184583 71.65991211 118.21972656 C69.69790926 118.23970918 67.73596495 118.26690484 65.77416992 118.30175781 C50.58544163 118.56463221 38.5434368 118.019727 27 107 C16.68943214 96.19942496 14.80822868 82.28316642 12.109375 68.1640625 C11.75701435 66.35317612 11.4039958 64.54241763 11.050354 62.73178101 C10.31544735 58.95912009 9.58652686 55.18537076 8.86230469 51.41064453 C7.93468934 46.57694684 6.99496931 41.74570176 6.05117416 36.91514015 C5.32338783 33.18581817 4.60046105 29.45556791 3.87915802 25.72498703 C3.53422821 23.94259821 3.18814409 22.16043236 2.84087372 20.37849808 C2.35762459 17.89334905 1.88056902 15.4070909 1.40527344 12.92041016 C1.2619458 12.18890747 1.11861816 11.45740479 0.97094727 10.70373535 C0.27098743 7.00451822 0 3.80483213 0 0 Z " fill="#E34B4C" transform="translate(118,394)"/>
<path d="M0 0 C2.79992055 0.85060878 5.24066063 0.74394449 8.16015625 0.65625 C14.0980055 0.52146906 19.10403213 0.93622137 23.6875 5.015625 C28.17260185 10.05973954 29.4065782 14.35465185 29.09765625 20.96875 C29.02110178 24.98110508 29.02190987 28.10091045 30.66015625 31.78125 C33.02808079 37.14023713 33.31456685 43.23646375 31.43359375 48.80859375 C28.86877522 53.74013506 25.4709147 55.87537301 20.328125 57.61328125 C18.85279297 58.03673828 18.85279297 58.03673828 17.34765625 58.46875 C12.36192666 60.05511851 8.85272881 62.04919921 4.8203125 65.328125 C0.99829339 68.38574029 -2.84706065 69.19393868 -7.73046875 69.01953125 C-12.84056987 68.13945828 -16.52543673 65.42745766 -19.58203125 61.30859375 C-20.72018615 59.56989168 -21.85293497 57.82763974 -22.98046875 56.08203125 C-25.4707657 52.83313544 -28.35069174 51.11384482 -31.8203125 49.02734375 C-35.66943357 46.41411068 -37.37997183 43.03586575 -38.83984375 38.65625 C-39.75285707 31.0912825 -37.2150732 27.63573024 -32.83984375 21.65625 C-30.75921438 18.0344137 -29.51141609 14.59348963 -28.40234375 10.59375 C-26.83662462 5.21865238 -24.90549782 2.11732239 -20.27734375 -1.15625 C-13.18836053 -3.60517148 -6.75265899 -2.99501918 0 0 Z " fill="#FE98C4" transform="translate(335.83984375,16.34375)"/>
<path d="M0 0 C-1.09346547 18.57859431 -2.53573971 37.12969064 -4.08437252 55.67540836 C-4.56683723 61.46646475 -5.0311374 67.25782598 -5.45532227 73.0534668 C-5.86945456 78.70379953 -6.32904681 84.34874449 -6.82052803 89.99285698 C-6.99890922 92.13211363 -7.16112409 94.2727848 -7.30650139 96.41453743 C-8.45162479 113.04986026 -8.45162479 113.04986026 -12.2091217 117.78233337 C-14.74949282 119.60216502 -17.10913079 120.83549311 -20 122 C-21.55376343 122.93863892 -21.55376343 122.93863892 -23.13891602 123.89624023 C-24.00186279 124.36231689 -24.86480957 124.82839355 -25.75390625 125.30859375 C-26.70974609 125.82744141 -27.66558594 126.34628906 -28.65039062 126.88085938 C-29.61138672 127.39455078 -30.57238281 127.90824219 -31.5625 128.4375 C-32.55830078 128.97826172 -33.55410156 129.51902344 -34.58007812 130.07617188 C-41.84734513 134 -41.84734513 134 -43 134 C-43.25989396 125.44275087 -42.2477931 117.05245714 -41.3125 108.5625 C-39.93848704 95.96855634 -38.7641585 83.37431896 -37.796875 70.7421875 C-37.58968036 68.10341511 -37.38224194 65.46466186 -37.17456055 62.82592773 C-36.86533496 58.890796 -36.5637929 54.95584466 -36.2862854 51.01834106 C-36.02444082 47.31120709 -35.73537849 43.60704843 -35.44140625 39.90234375 C-35.33508881 38.23128067 -35.33508881 38.23128067 -35.22662354 36.52645874 C-34.54127207 28.35915532 -32.67647836 25.22345259 -26.52734375 19.83203125 C-25.67269531 19.16558594 -24.81804687 18.49914062 -23.9375 17.8125 C-19.08452583 13.94065629 -14.4977778 9.87342574 -9.97241211 5.63012695 C-3.93962224 0 -3.93962224 0 0 0 Z " fill="#36925D" transform="translate(427,176)"/>
<path d="M0 0 C8.95335063 1.36787301 17.67543953 12.35607181 24.17578125 18.421875 C26.18359607 20.254735 28.18880976 21.99071441 30.29296875 23.703125 C34.13118599 26.95979417 34.17597618 28.96354088 34.59545898 33.88642883 C34.66192627 34.71410263 34.72839355 35.54177643 34.796875 36.39453125 C34.87075439 37.26961838 34.94463379 38.14470551 35.02075195 39.04631042 C35.18212853 40.95985153 35.34175687 42.87354065 35.49987793 44.78735352 C35.92835806 49.96968372 36.36980012 55.15089888 36.8125 60.33203125 C36.90585632 61.42613312 36.99921265 62.52023499 37.09539795 63.64749146 C37.8123813 71.98142774 38.58151699 80.30973956 39.375 88.63671875 C39.48958557 89.83931839 39.60417114 91.04191803 39.722229 92.28096008 C40.2852208 98.17318447 40.85328773 104.06489582 41.42480469 109.95629883 C41.63220306 112.11669523 41.83956182 114.27709543 42.046875 116.4375 C42.14355469 117.41994186 42.24023438 118.40238373 42.33984375 119.41459656 C42.77454818 123.96287712 43.11649969 128.42404499 43 133 C35.3991025 132.19430487 28.57305543 126.95038424 22.10351562 123.19238281 C20.39691378 122.22499151 18.64875823 121.33116927 16.890625 120.4609375 C13.43631023 118.62089401 11.47635307 117.2908962 10.09765625 113.5546875 C9.59229772 110.72910623 9.30017965 107.95273661 9.12841797 105.08837891 C8.99265752 102.88059391 8.80090689 100.68304197 8.59765625 98.48046875 C8.25724653 94.75397293 7.94034229 91.02622335 7.6328125 87.296875 C6.84886222 78.02234461 5.91500651 68.76231537 5 59.5 C3.79042471 47.24217759 2.59407225 34.98622635 1.59570312 22.70898438 C1.30481524 19.18726408 0.95980614 15.72237526 0.453125 12.22265625 C0.06196006 9.44066421 -0.10560379 6.86424639 -0.0625 4.0625 C-0.05347656 3.29035156 -0.04445313 2.51820313 -0.03515625 1.72265625 C-0.02355469 1.15417969 -0.01195313 0.58570313 0 0 Z " fill="#36925D" transform="translate(85,176)"/>
<path d="M0 0 C1.3856163 0.00848969 1.3856163 0.00848969 2.79922485 0.01715088 C5.73387668 0.03944448 8.66728311 0.08962752 11.6015625 0.140625 C13.59763855 0.16069908 15.59373384 0.17894826 17.58984375 0.1953125 C22.46922588 0.23928628 27.34768343 0.30826501 32.2265625 0.390625 C31.5046875 0.926875 30.7828125 1.463125 30.0390625 2.015625 C24.71584506 6.32009256 24.71584506 6.32009256 21.77856445 12.31326294 C21.60045924 14.52381509 21.58515064 16.67739122 21.6328125 18.89453125 C21.63277222 19.69543686 21.63273193 20.49634247 21.63269043 21.32151794 C21.63802885 23.0066619 21.65553974 24.69180665 21.68457031 26.37670898 C21.72649823 28.94918195 21.72562837 31.51903901 21.71875 34.09179688 C21.72924154 35.7343931 21.74217946 37.37697591 21.7578125 39.01953125 C21.75801392 39.78423233 21.75821533 40.54893341 21.75842285 41.33680725 C21.85819677 45.85792364 22.46518346 48.77838546 25.2265625 52.390625 C27.7114552 54.55488638 30.28323777 55.94661391 33.2265625 57.390625 C27.67717525 57.63369733 22.12765707 57.84838614 16.57617188 58.03759766 C14.69046233 58.1057753 12.80500939 58.1815081 10.91992188 58.26513672 C8.1995536 58.38447634 5.47939988 58.47600808 2.7578125 58.5625 C1.92415161 58.60501892 1.09049072 58.64753784 0.23156738 58.69134521 C-5.60491872 58.8395711 -9.91260723 57.69980186 -14.7734375 54.390625 C-19.4363162 49.36906333 -19.94862777 45.97597439 -20.01171875 39.3125 C-20.0197905 38.50830627 -20.02786224 37.70411255 -20.03617859 36.87554932 C-20.05002048 35.1707983 -20.06074217 33.46601955 -20.06860352 31.76123047 C-20.0857796 29.16449756 -20.12965834 26.56905024 -20.17382812 23.97265625 C-20.18395855 22.31511352 -20.19247356 20.65755997 -20.19921875 19 C-20.21672684 18.22791199 -20.23423492 17.45582397 -20.25227356 16.66033936 C-20.23150242 11.4500378 -19.29880212 8.46170829 -15.7734375 4.390625 C-10.70119575 -0.1270016 -6.4584231 -0.15019759 0 0 Z " fill="#D2D2D2" transform="translate(121.7734375,335.609375)"/>
<path d="M0 0 C2.22644195 1.39568003 4.23404435 2.92442008 6.265625 4.58984375 C9.77173904 7.44053557 12.8486689 7.44248207 17.25 7.4296875 C22.24618375 6.64903379 26.45608922 3.54391078 30 0 C34.0111386 -0.54697345 35.58042052 -0.29459835 38.9375 2.0625 C41 5 41 5 41.3125 8.375 C38.92974007 14.95595599 33.62380503 18.49952236 27.4375 21.4375 C18.48393152 24.58706556 9.05172672 24.42893673 0.4375 20.4375 C-4.19654717 17.76979176 -8.62751565 14.94893795 -11 10 C-11.13178855 6.04634364 -10.92645064 4.06370258 -8.3125 1.0625 C-5.1163175 -0.40601629 -3.50516635 -0.60666341 0 0 Z " fill="#3B4A4B" transform="translate(241,190)"/>
<path d="M0 0 C0.66 -0.0103125 1.32 -0.020625 2 -0.03125 C5.06106327 0.78184493 6.08912029 1.95859103 8 4.5 C8.61378626 7.5567385 8.58433115 10.57377765 8.56640625 13.68359375 C8.57570412 15.02237328 8.57570412 15.02237328 8.58518982 16.38819885 C8.59228534 18.27351797 8.58911861 20.15889978 8.57641602 22.04418945 C8.56256244 24.92451725 8.59660782 27.80158784 8.63476562 30.68164062 C8.63571698 32.51562579 8.63385711 34.34961502 8.62890625 36.18359375 C8.64216446 37.04206406 8.65542267 37.90053436 8.66908264 38.78501892 C8.60103934 43.16934186 8.41250518 44.96622267 5.64819336 48.54321289 C3 50.5 3 50.5 0 51.125 C-4.13980325 50.26254099 -5.41979573 48.838757 -8 45.5 C-8.71650524 42.38950431 -8.6780322 39.36450362 -8.62890625 36.18359375 C-8.63131821 35.29011734 -8.63373016 34.39664093 -8.63621521 33.47608948 C-8.63523812 31.59249419 -8.62187739 29.7088697 -8.59692383 27.82543945 C-8.56256773 24.9431818 -8.57628265 22.06398336 -8.59570312 19.18164062 C-8.58880565 17.34894529 -8.57913416 15.51625786 -8.56640625 13.68359375 C-8.57136612 12.82309921 -8.57632599 11.96260468 -8.58143616 11.07603455 C-8.4641267 5.11727368 -8.4641267 5.11727368 -6.08959961 1.95922852 C-3.82714494 0.37929026 -2.73124872 -0.04267576 0 0 Z " fill="#ECEBEB" transform="translate(256,-0.5)"/>
<path d="M0 0 C3.32878632 2.46040728 4.79301948 3.89610387 5.5625 8 C4.84840731 11.80849433 3.70074757 13.21767182 1 16 C-1.52157608 17.45189353 -4.15624796 18.47512059 -6.875 19.5 C-7.62080322 19.79406738 -8.36660645 20.08813477 -9.13500977 20.39111328 C-15.15516486 22.74290621 -21.2336502 24.93749984 -27.33984375 27.0546875 C-29.93031743 27.91436622 -29.93031743 27.91436622 -32 29 C-35.375 29.375 -35.375 29.375 -39 29 C-41.5 26.9375 -41.5 26.9375 -43 24 C-43.125 20.4375 -43.125 20.4375 -42 17 C-37.82761111 13.16591291 -32.51376831 11.46120282 -27.3046875 9.36328125 C-22.77262444 7.49367131 -18.34695526 5.41573239 -13.91015625 3.33203125 C-5.02840198 -0.73330862 -5.02840198 -0.73330862 0 0 Z " fill="#EEECED" transform="translate(405,93)"/>
<path d="M0 0 C2.79834156 0.84334575 5.4469938 1.95978144 8.125 3.125 C8.86983643 3.44049805 9.61467285 3.75599609 10.38208008 4.08105469 C16.7194716 6.79892945 22.88332344 9.81823103 29 13 C30.05832031 13.48984375 31.11664063 13.9796875 32.20703125 14.484375 C35 16 35 16 37 19 C36.81989972 22.36187193 36.58112046 24.99918142 34.875 27.9375 C31.91978765 29.61212033 29.34979794 29.18553722 26 29 C22.73022461 28.0378418 22.73022461 28.0378418 19.40234375 26.69921875 C17.58186523 25.97508789 17.58186523 25.97508789 15.72460938 25.23632812 C14.46222116 24.72009714 13.19985151 24.20382074 11.9375 23.6875 C10.67163936 23.18190142 9.40536584 22.6773353 8.13867188 22.17382812 C-8.73702896 15.40022146 -8.73702896 15.40022146 -11 11 C-11.5 8.0625 -11.5 8.0625 -11 5 C-7.6124665 0.41686645 -5.57939529 -0.55008123 0 0 Z " fill="#EEECED" transform="translate(113,93)"/>
<path d="M0 0 C4.62059657 3.81441817 7.12194145 8.36143094 9.875 13.5625 C10.7433372 15.17396167 11.6131345 16.7846374 12.484375 18.39453125 C13.11956055 19.57136475 13.11956055 19.57136475 13.76757812 20.77197266 C15.9665268 24.74733034 18.3866835 28.58638598 20.8203125 32.421875 C22.23248729 35.50808481 22.33034276 37.64073982 22 41 C20.4375 43.375 20.4375 43.375 18 45 C14.625 45.6875 14.625 45.6875 11 45 C6.28410846 41.33728523 3.44759104 35.62332291 0.50390625 30.54296875 C-0.93654834 28.10729099 -2.46788779 25.77436137 -4.0625 23.4375 C-5.04647958 21.96153063 -6.02566047 20.48235079 -7 19 C-7.50273437 18.23558594 -8.00546875 17.47117187 -8.5234375 16.68359375 C-10.85802648 12.87215151 -11.98905992 10.67828512 -12.0625 6.125 C-11 3 -11 3 -9.375 1.0625 C-5.97380129 -0.4590889 -3.68717269 -0.51749792 0 0 Z " fill="#EEECED" transform="translate(175,23)"/>
<path d="M0 0 C4.30619632 2.23590963 7.26400997 4.40473228 9 9 C9.19923841 13.55757856 8.59308006 17.00447276 6.25 20.9375 C2.9767995 23.93793379 0.43117578 24.81729671 -3.9375 25.375 C-8.84768745 24.77375256 -11.80165507 22.47795875 -14.875 18.6875 C-16.35117243 15.16108808 -16.46618895 12.79611 -16 9 C-12.32317126 1.9187002 -8.0382172 -0.98714948 0 0 Z " fill="#FADA61" transform="translate(336,37)"/>
<path d="M0 0 C2.1875 1.44140625 2.1875 1.44140625 4 4 C4.59250401 7.15622326 4.55827482 10.23481321 4.5 13.4375 C4.51546875 14.28376953 4.5309375 15.13003906 4.546875 16.00195312 C4.52108881 20.11807374 4.32031237 22.45878255 2.1875 26.0625 C0 28 0 28 -3.5 28.5625 C-7 28 -7 28 -9.1875 26.58984375 C-11.98621088 22.59082368 -11.58165165 18.76301266 -11.5 14 C-11.51546875 13.09765625 -11.5309375 12.1953125 -11.546875 11.265625 C-11.50818628 4.7272321 -11.50818628 4.7272321 -9.1875 1.40625 C-5.95849285 -0.66954031 -3.75136398 -0.53590914 0 0 Z " fill="#3A494A" transform="translate(186,178)"/>
<path d="M0 0 C2.1875 1.40625 2.1875 1.40625 4 4 C4.59524615 7.34253609 4.55805877 10.61323857 4.5 14 C4.51546875 14.90234375 4.5309375 15.8046875 4.546875 16.734375 C4.50817975 23.27387247 4.50817975 23.27387247 2.1875 26.58984375 C-1.06994203 28.68973049 -3.21681248 28.60801228 -7 28 C-10.27802869 25.09660316 -11.26224089 22.74739836 -11.53125 18.49609375 C-11.54181349 16.80989675 -11.53081703 15.12344847 -11.5 13.4375 C-11.51546875 12.58736328 -11.5309375 11.73722656 -11.546875 10.86132812 C-11.52223283 6.93398303 -11.49878284 4.70410077 -9.1875 1.44140625 C-5.96477042 -0.68214235 -3.76936763 -0.53848109 0 0 Z " fill="#3A494A" transform="translate(333,178)"/>
</svg>
